<?xml version="1.0" encoding="UTF-8" standalone="no"?>
<!-- Created with Inkscape (http://www.inkscape.org/) -->

<svg
   width="500"
   height="500"
   viewBox="0 0 132.29167 132.29167"
   version="1.1"
   id="svg1"
   xmlns="http://www.w3.org/2000/svg"
   xmlns:svg="http://www.w3.org/2000/svg">
  <defs
     id="defs1" />
  <g
     id="layer1"
     transform="matrix(1.4256278,0,0,1.4256278,-17.85653,-13.169058)">
    <path
       style="fill:#000000;fill-opacity:0;stroke:#000000;stroke-width:1.38631;stroke-dasharray:none;stroke-opacity:1"
       d="M 19.419106,19.718366 V 90.858604 H 99.120185"
       id="path1" />
    <g
       id="layer2"
       transform="matrix(1.2332111,0,0,1.2332111,-5.6652535,-6.3227099)">
      <circle
         style="fill:#000000;fill-opacity:0;stroke:#000000;stroke-width:0.75;stroke-dasharray:none;stroke-opacity:1"
         id="path2"
         cx="29.791273"
         cy="31.570852"
         r="1.3945123" />
      <circle
         style="fill:#000000;fill-opacity:0;stroke:#000000;stroke-width:0.75;stroke-dasharray:none;stroke-opacity:1"
         id="path2-4"
         cx="26.061897"
         cy="43.93671"
         r="1.3945123" />
      <circle
         style="fill:#000000;fill-opacity:0;stroke:#000000;stroke-width:0.75;stroke-dasharray:none;stroke-opacity:1"
         id="path2-1"
         cx="42.026276"
         cy="46.697609"
         r="1.3945123" />
      <circle
         style="fill:#000000;fill-opacity:0;stroke:#000000;stroke-width:0.75;stroke-dasharray:none;stroke-opacity:1"
         id="path2-6"
         cx="40.781464"
         cy="28.881044"
         r="1.3945123" />
      <circle
         style="fill:#000000;fill-opacity:0;stroke:#000000;stroke-width:0.75;stroke-dasharray:none;stroke-opacity:1"
         id="path2-7"
         cx="32.583542"
         cy="49.961632"
         r="1.3945123" />
      <circle
         style="fill:#000000;fill-opacity:0;stroke:#000000;stroke-width:0.75;stroke-dasharray:none;stroke-opacity:1"
         id="path2-5"
         cx="34.543804"
         cy="36.289101"
         r="1.3945123" />
    </g>
    <g
       id="layer3"
       transform="matrix(1.1946856,0,0,1.1946856,2.8785448,-18.773984)">
      <path
         style="fill:#000000;fill-opacity:0;stroke:#000000;stroke-width:1.08763;stroke-dasharray:none;stroke-opacity:1"
         id="path4"
         d="m 76.294733,31.958969 -1.888222,0.723438 -0.474511,1.9656 -1.271523,-1.572251 -2.016029,0.156118 1.102378,-1.695143 -0.771464,-1.869114 1.95283,0.524595 1.539237,-1.311294 0.104538,2.019361 z"
         transform="matrix(0.68957121,0,0,0.68957121,9.8619607,46.010892)" />
      <path
         style="fill:#000000;fill-opacity:0;stroke:#000000;stroke-width:1.08763;stroke-dasharray:none;stroke-opacity:1"
         id="path4-9"
         d="m 76.294733,31.958969 -1.888222,0.723438 -0.474511,1.9656 -1.271523,-1.572251 -2.016029,0.156118 1.102378,-1.695143 -0.771464,-1.869114 1.95283,0.524595 1.539237,-1.311294 0.104538,2.019361 z"
         transform="matrix(0.68957121,0,0,0.68957121,18.604695,42.261553)" />
      <path
         style="fill:#000000;fill-opacity:0;stroke:#000000;stroke-width:1.08763;stroke-dasharray:none;stroke-opacity:1"
         id="path4-8"
         d="m 76.294733,31.958969 -1.888222,0.723438 -0.474511,1.9656 -1.271523,-1.572251 -2.016029,0.156118 1.102378,-1.695143 -0.771464,-1.869114 1.95283,0.524595 1.539237,-1.311294 0.104538,2.019361 z"
         transform="matrix(0.68957121,0,0,0.68957121,-4.4020343,41.318928)" />
      <path
         style="fill:#000000;fill-opacity:0;stroke:#000000;stroke-width:1.08763;stroke-dasharray:none;stroke-opacity:1"
         id="path4-6"
         d="m 76.294733,31.958969 -1.888222,0.723438 -0.474511,1.9656 -1.271523,-1.572251 -2.016029,0.156118 1.102378,-1.695143 -0.771464,-1.869114 1.95283,0.524595 1.539237,-1.311294 0.104538,2.019361 z"
         transform="matrix(0.68957121,0,0,0.68957121,4.4854778,23.25073)" />
      <path
         style="fill:#000000;fill-opacity:0;stroke:#000000;stroke-width:1.08763;stroke-dasharray:none;stroke-opacity:1"
         id="path4-5"
         d="m 76.294733,31.958969 -1.888222,0.723438 -0.474511,1.9656 -1.271523,-1.572251 -2.016029,0.156118 1.102378,-1.695143 -0.771464,-1.869114 1.95283,0.524595 1.539237,-1.311294 0.104538,2.019361 z"
         transform="matrix(0.68957121,0,0,0.68957121,10.644296,33.180958)" />
      <path
         style="fill:#000000;fill-opacity:0;stroke:#000000;stroke-width:1.08763;stroke-dasharray:none;stroke-opacity:1"
         id="path4-5-8"
         d="m 76.294733,31.958969 -1.888222,0.723438 -0.474511,1.9656 -1.271523,-1.572251 -2.016029,0.156118 1.102378,-1.695143 -0.771464,-1.869114 1.95283,0.524595 1.539237,-1.311294 0.104538,2.019361 z"
         transform="matrix(0.68957121,0,0,0.68957121,0.2289482,32.241523)" />
    </g>
    <g
       id="layer4"
       transform="matrix(1.2245593,0,0,1.2245593,-10.694998,-14.976886)">
      <path
         style="fill:#000000;fill-opacity:0;stroke:#000000;stroke-width:5.51015;stroke-dasharray:none;stroke-opacity:1"
         id="path5"
         d="m 176.12358,267.40742 -23.50793,0 0,-23.50793 23.50793,0 z"
         transform="matrix(0.13611256,0,0,0.13611256,34.892918,46.006164)" />
      <path
         style="fill:#000000;fill-opacity:0;stroke:#000000;stroke-width:5.51015;stroke-dasharray:none;stroke-opacity:1"
         id="path5-8"
         d="m 176.12358,267.40742 -23.50793,0 0,-23.50793 23.50793,0 z"
         transform="matrix(0.13611256,0,0,0.13611256,44.450573,43.461074)" />
      <path
         style="fill:#000000;fill-opacity:0;stroke:#000000;stroke-width:5.51015;stroke-dasharray:none;stroke-opacity:1"
         id="path5-0"
         d="m 176.12358,267.40742 -23.50793,0 0,-23.50793 23.50793,0 z"
         transform="matrix(0.13611256,0,0,0.13611256,27.228702,40.991724)" />
      <path
         style="fill:#000000;fill-opacity:0;stroke:#000000;stroke-width:5.51015;stroke-dasharray:none;stroke-opacity:1"
         id="path5-4"
         d="m 176.12358,267.40742 -23.50793,0 0,-23.50793 23.50793,0 z"
         transform="matrix(0.13611256,0,0,0.13611256,46.758646,37.340693)" />
      <path
         style="fill:#000000;fill-opacity:0;stroke:#000000;stroke-width:5.51015;stroke-dasharray:none;stroke-opacity:1"
         id="path5-80"
         d="m 176.12358,267.40742 -23.50793,0 0,-23.50793 23.50793,0 z"
         transform="matrix(0.13611256,0,0,0.13611256,36.783682,33.871786)" />
    </g>
  </g>
</svg>
